#Comment line ignore any data following # character 
#Hierarchical Translation and Rotation (.htr) file 
[Header]	
#Header keywords are followed by a single value 
FileType HTR		#Single word string
DataType HTRS		#Translation followed by rotation and scale data
FileVersion 1		#integer
NumSegments 84		#integer
NumFrames 2		#integer
DataFrameRate 30		#integer, data frame rate in this file
EulerRotationOrder ZYX
CalibrationUnits mm
RotationUnits Degrees
GlobalAxisofGravity Y
BoneLengthAxis Y
ScaleFactor 1.00
[SegmentNames&Hierarchy]
#CHILD	PARENT
MASTER GLOBAL
root MASTER
chest root
L_mid_tent01 root
R_mid_tent01 root
spine01 root
Bip01_Neck chest
L_humerus chest
R_humerus chest
weapon_bone chest
Bip01_Head Bip01_Neck
eye_left_bone Bip01_Head
eye_right_bone Bip01_Head
L_forearm L_humerus
L_front_hand L_forearm
L_weapon_bone L_forearm
L_front_hand01_01 L_front_hand
L_front_hand02_01 L_front_hand
L_front_hand03_01 L_front_hand
L_front_hand01_02 L_front_hand01_01
L_front_hand02_02 L_front_hand02_01
L_front_hand03_02 L_front_hand03_01
R_forearm R_humerus
R_front_hand R_forearm
R_weapon_bone R_forearm
R_front_hand01_01 R_front_hand
R_front_hand02_01 R_front_hand
R_front_hand03_01 R_front_hand
R_front_hand01_02 R_front_hand01_01
R_front_hand02_02 R_front_hand02_01
R_front_hand03_02 R_front_hand03_01
null_rope01_connect L_mid_tent01
Rope1_Seg01 null_rope01_connect
Rope1_Seg02 Rope1_Seg01
Rope1_Seg03 Rope1_Seg02
Rope1_Seg04 Rope1_Seg03
Rope1_Seg05 Rope1_Seg04
Rope1_Seg06 Rope1_Seg05
Rope1_Seg07 Rope1_Seg06
Rope1_Seg09 Rope1_Seg07
L_mid_hand01 Rope1_Seg09
L_mid_hand02 Rope1_Seg09
L_mid_hand03 Rope1_Seg09
null_rope02_connect R_mid_tent01
Rope2_Seg01 null_rope02_connect
Rope2_Seg02 Rope2_Seg01
Rope2_Seg03 Rope2_Seg02
Rope2_Seg04 Rope2_Seg03
Rope2_Seg05 Rope2_Seg04
Rope2_Seg06 Rope2_Seg05
Rope2_Seg07 Rope2_Seg06
Rope2_Seg09 Rope2_Seg07
R_mid_hand01 Rope2_Seg09
R_mid_hand02 Rope2_Seg09
R_mid_hand03 Rope2_Seg09
spine02 spine01
spine03 spine02
pelvis spine03
null_rope03_connect pelvis
null_rope04_connect pelvis
Rope3_Seg01 null_rope03_connect
Rope3_Seg02 Rope3_Seg01
Rope3_Seg03 Rope3_Seg02
Rope3_Seg04 Rope3_Seg03
Rope3_Seg05 Rope3_Seg04
Rope3_Seg06 Rope3_Seg05
Rope3_Seg07 Rope3_Seg06
Rope3_Seg08 Rope3_Seg07
Rope3_Seg09 Rope3_Seg08
R_rear_hand01 Rope3_Seg09
R_rear_hand02 Rope3_Seg09
R_rear_hand03 Rope3_Seg09
Rope4_Seg01 null_rope04_connect
Rope4_Seg02 Rope4_Seg01
Rope4_Seg03 Rope4_Seg02
Rope4_Seg04 Rope4_Seg03
Rope4_Seg05 Rope4_Seg04
Rope4_Seg06 Rope4_Seg05
Rope4_Seg07 Rope4_Seg06
Rope4_Seg08 Rope4_Seg07
Rope4_Seg09 Rope4_Seg08
L_rear_hand01 Rope4_Seg09
L_rear_hand02 Rope4_Seg09
L_rear_hand03 Rope4_Seg09
[BasePosition]
#SegmentName Tx, Ty, Tz, Rx, Ry, Rz, BoneLength
MASTER 0.000000 0.000000 0.000000 -90.000000 0.000000 0.000000 10.000000 
root 0.000000 0.000000 0.000000 0.000000 0.000000 0.000000 10.000000 
chest 0.000000 0.000000 0.000000 0.000000 0.000000 0.000000 10.000000 
L_mid_tent01 0.000000 0.000000 0.000000 0.000000 0.000000 0.000000 10.000000 
R_mid_tent01 0.000000 0.000000 0.000000 0.000000 0.000000 0.000000 10.000000 
spine01 0.000000 0.000000 0.000000 0.000000 0.000000 0.000000 10.000000 
Bip01_Neck 0.000000 0.000000 0.000000 0.000000 0.000000 0.000000 10.000000 
L_humerus 0.000000 0.000000 0.000000 0.000000 0.000000 0.000000 10.000000 
R_humerus 0.000000 0.000000 0.000000 0.000000 0.000000 0.000000 10.000000 
weapon_bone 0.000000 0.000000 0.000000 0.000000 0.000000 0.000000 10.000000 
Bip01_Head 0.000000 0.000000 0.000000 0.000000 0.000000 0.000000 10.000000 
eye_left_bone 0.000000 0.000000 0.000000 0.000000 0.000000 0.000000 10.000000 
eye_right_bone 0.000000 0.000000 0.000000 0.000000 0.000000 0.000000 10.000000 
L_forearm 0.000000 0.000000 0.000000 0.000000 0.000000 0.000000 10.000000 
L_front_hand 0.000000 0.000000 0.000000 0.000000 0.000000 0.000000 10.000000 
L_weapon_bone 0.000000 0.000000 0.000000 0.000000 0.000000 0.000000 10.000000 
L_front_hand01_01 0.000000 0.000000 0.000000 0.000000 0.000000 0.000000 10.000000 
L_front_hand02_01 0.000000 0.000000 0.000000 0.000000 0.000000 0.000000 10.000000 
L_front_hand03_01 0.000000 0.000000 0.000000 0.000000 0.000000 0.000000 10.000000 
L_front_hand01_02 0.000000 0.000000 0.000000 0.000000 0.000000 0.000000 10.000000 
L_front_hand02_02 0.000000 0.000000 0.000000 0.000000 0.000000 0.000000 10.000000 
L_front_hand03_02 0.000000 0.000000 0.000000 0.000000 0.000000 0.000000 10.000000 
R_forearm 0.000000 0.000000 0.000000 0.000000 0.000000 0.000000 10.000000 
R_front_hand 0.000000 0.000000 0.000000 0.000000 0.000000 0.000000 10.000000 
R_weapon_bone 0.000000 0.000000 0.000000 0.000000 0.000000 0.000000 10.000000 
R_front_hand01_01 0.000000 0.000000 0.000000 0.000000 0.000000 0.000000 10.000000 
R_front_hand02_01 0.000000 0.000000 0.000000 0.000000 0.000000 0.000000 10.000000 
R_front_hand03_01 0.000000 0.000000 0.000000 0.000000 0.000000 0.000000 10.000000 
R_front_hand01_02 0.000000 0.000000 0.000000 0.000000 0.000000 0.000000 10.000000 
R_front_hand02_02 0.000000 0.000000 0.000000 0.000000 0.000000 0.000000 10.000000 
R_front_hand03_02 0.000000 0.000000 0.000000 0.000000 0.000000 0.000000 10.000000 
null_rope01_connect 0.000000 0.000000 0.000000 0.000000 0.000000 0.000000 10.000000 
Rope1_Seg01 0.000000 0.000000 0.000000 0.000000 0.000000 0.000000 10.000000 
Rope1_Seg02 0.000000 0.000000 0.000000 0.000000 0.000000 0.000000 10.000000 
Rope1_Seg03 0.000000 0.000000 0.000000 0.000000 0.000000 0.000000 10.000000 
Rope1_Seg04 0.000000 0.000000 0.000000 0.000000 0.000000 0.000000 10.000000 
Rope1_Seg05 0.000000 0.000000 0.000000 0.000000 0.000000 0.000000 10.000000 
Rope1_Seg06 0.000000 0.000000 0.000000 0.000000 0.000000 0.000000 10.000000 
Rope1_Seg07 0.000000 0.000000 0.000000 0.000000 0.000000 0.000000 10.000000 
Rope1_Seg09 0.000000 0.000000 0.000000 0.000000 0.000000 0.000000 10.000000 
L_mid_hand01 0.000000 0.000000 0.000000 0.000000 0.000000 0.000000 10.000000 
L_mid_hand02 0.000000 0.000000 0.000000 0.000000 0.000000 0.000000 10.000000 
L_mid_hand03 0.000000 0.000000 0.000000 0.000000 0.000000 0.000000 10.000000 
null_rope02_connect 0.000000 0.000000 0.000000 0.000000 0.000000 0.000000 10.000000 
Rope2_Seg01 0.000000 0.000000 0.000000 0.000000 0.000000 0.000000 10.000000 
Rope2_Seg02 0.000000 0.000000 0.000000 0.000000 0.000000 0.000000 10.000000 
Rope2_Seg03 0.000000 0.000000 0.000000 0.000000 0.000000 0.000000 10.000000 
Rope2_Seg04 0.000000 0.000000 0.000000 0.000000 0.000000 0.000000 10.000000 
Rope2_Seg05 0.000000 0.000000 0.000000 0.000000 0.000000 0.000000 10.000000 
Rope2_Seg06 0.000000 0.000000 0.000000 0.000000 0.000000 0.000000 10.000000 
Rope2_Seg07 0.000000 0.000000 0.000000 0.000000 0.000000 0.000000 10.000000 
Rope2_Seg09 0.000000 0.000000 0.000000 0.000000 0.000000 0.000000 10.000000 
R_mid_hand01 0.000000 0.000000 0.000000 0.000000 0.000000 0.000000 10.000000 
R_mid_hand02 0.000000 0.000000 0.000000 0.000000 0.000000 0.000000 10.000000 
R_mid_hand03 0.000000 0.000000 0.000000 0.000000 0.000000 0.000000 10.000000 
spine02 0.000000 0.000000 0.000000 0.000000 0.000000 0.000000 10.000000 
spine03 0.000000 0.000000 0.000000 0.000000 0.000000 0.000000 10.000000 
pelvis 0.000000 0.000000 0.000000 0.000000 0.000000 0.000000 10.000000 
null_rope03_connect 0.000000 0.000000 0.000000 0.000000 0.000000 0.000000 10.000000 
null_rope04_connect 0.000000 0.000000 0.000000 0.000000 0.000000 0.000000 10.000000 
Rope3_Seg01 0.000000 0.000000 0.000000 0.000000 0.000000 0.000000 10.000000 
Rope3_Seg02 0.000000 0.000000 0.000000 0.000000 0.000000 0.000000 10.000000 
Rope3_Seg03 0.000000 0.000000 0.000000 0.000000 0.000000 0.000000 10.000000 
Rope3_Seg04 0.000000 0.000000 0.000000 0.000000 0.000000 0.000000 10.000000 
Rope3_Seg05 0.000000 0.000000 0.000000 0.000000 0.000000 0.000000 10.000000 
Rope3_Seg06 0.000000 0.000000 0.000000 0.000000 0.000000 0.000000 10.000000 
Rope3_Seg07 0.000000 0.000000 0.000000 0.000000 0.000000 0.000000 10.000000 
Rope3_Seg08 0.000000 0.000000 0.000000 0.000000 0.000000 0.000000 10.000000 
Rope3_Seg09 0.000000 0.000000 0.000000 0.000000 0.000000 0.000000 10.000000 
R_rear_hand01 0.000000 0.000000 0.000000 0.000000 0.000000 0.000000 10.000000 
R_rear_hand02 0.000000 0.000000 0.000000 0.000000 0.000000 0.000000 10.000000 
R_rear_hand03 0.000000 0.000000 0.000000 0.000000 0.000000 0.000000 10.000000 
Rope4_Seg01 0.000000 0.000000 0.000000 0.000000 0.000000 0.000000 10.000000 
Rope4_Seg02 0.000000 0.000000 0.000000 0.000000 0.000000 0.000000 10.000000 
Rope4_Seg03 0.000000 0.000000 0.000000 0.000000 0.000000 0.000000 10.000000 
Rope4_Seg04 0.000000 0.000000 0.000000 0.000000 0.000000 0.000000 10.000000 
Rope4_Seg05 0.000000 0.000000 0.000000 0.000000 0.000000 0.000000 10.000000 
Rope4_Seg06 0.000000 0.000000 0.000000 0.000000 0.000000 0.000000 10.000000 
Rope4_Seg07 0.000000 0.000000 0.000000 0.000000 0.000000 0.000000 10.000000 
Rope4_Seg08 0.000000 0.000000 0.000000 0.000000 0.000000 0.000000 10.000000 
Rope4_Seg09 0.000000 0.000000 0.000000 0.000000 0.000000 0.000000 10.000000 
L_rear_hand01 0.000000 0.000000 0.000000 0.000000 0.000000 0.000000 10.000000 
L_rear_hand02 0.000000 0.000000 0.000000 0.000000 0.000000 0.000000 10.000000 
L_rear_hand03 0.000000 0.000000 0.000000 0.000000 0.000000 0.000000 10.000000 
#Beginning of Data. Separated by tabs
#Fr	Tx	Ty	Tz	Rx	Ry	Rz	SF
[MASTER]
19 -1354.124390 163.131348 1515.048706 0.001660 0.001660 0.001660 2038.538086
20 -1354.124390 163.131348 1515.048706 0.001660 0.001660 0.001660 2038.538086
[root]
19 20.013123 -118.897354 462.015350 -162.744568 -13.773167 -71.124062 477.488556
20 20.013123 -118.897354 462.015350 -163.249130 -13.634826 -71.009430 477.488556
[chest]
19 -84.512650 -34.090519 0.000000 -37.554138 -22.092760 179.018631 91.129311
20 -84.512650 -34.090519 0.000000 -38.624466 -22.803078 179.569336 91.129311
[L_mid_tent01]
19 27.299141 22.179213 -249.918716 -11.396171 14.487795 36.496445 252.381714
20 27.299143 22.179216 -249.918716 -11.163179 14.429726 37.253494 252.381714
[R_mid_tent01]
19 23.228794 24.509907 226.238495 177.045624 -17.635157 34.386742 228.744751
20 23.228794 24.509907 226.238495 177.373825 -18.131643 33.463879 228.744751
[spine01]
19 -0.361383 -0.195265 0.000000 0.001958 0.001295 23.022610 0.410763
20 -0.361383 -0.195265 0.000000 0.001958 0.001295 23.023870 0.410763
[Bip01_Neck]
19 165.484543 71.581718 0.000119 176.643677 -1.657967 43.431911 180.302734
20 165.484543 71.581718 0.000119 176.643677 -1.657967 43.431911 180.302734
[L_humerus]
19 -13.983130 -135.272980 -120.471481 163.896713 60.925014 -103.174599 181.680161
20 -13.983130 -135.272980 -120.471481 160.221191 66.525085 -107.258141 181.680161
[R_humerus]
19 -13.983309 -135.273102 125.287651 -93.213440 -57.983559 -165.949982 184.909012
20 -13.983309 -135.273102 125.287651 -79.182640 -56.879814 -179.963715 184.909012
[weapon_bone]
19 235.964890 -300.705902 0.000000 0.000000 -89.951546 -128.212341 382.234833
20 235.964890 -300.705902 0.000000 0.000000 -89.951546 -128.212341 382.234833
[Bip01_Head]
19 213.610046 185.253998 17.734869 -17.725019 -0.343868 -43.890751 283.306946
20 213.593124 185.301025 17.127607 -17.406166 0.016890 -43.889118 283.287567
[eye_left_bone]
19 -24.626970 125.451866 -64.772606 0.000000 -90.000000 -99.840431 143.318359
20 -24.626970 125.451866 -64.772606 0.000000 -90.000000 -99.840431 143.318359
[eye_right_bone]
19 -24.626970 125.451866 64.327362 0.000000 -89.965736 80.156380 143.117676
20 -24.626970 125.451866 64.327362 0.000000 -89.965736 80.156380 143.117676
[L_forearm]
19 322.776093 0.000000 -0.000119 0.000152 -0.002342 -97.410362 322.776093
20 322.776093 0.000000 -0.000119 0.000157 -0.002342 -97.650200 322.776093
[L_front_hand]
19 241.149185 -0.042021 -3.300071 174.201096 -1.835681 -27.423513 241.171753
20 241.149185 -0.042021 -3.300071 175.129425 -1.837806 -27.422657 241.171753
[L_weapon_bone]
19 156.183838 0.000000 0.000000 0.000014 0.000007 0.000001 156.183838
20 156.183838 0.000000 0.000000 0.000014 0.000007 0.000001 156.183838
[L_front_hand01_01]
19 86.095154 20.947098 -0.655860 -0.199991 -0.565161 57.331680 88.609184
20 86.095154 20.947098 -0.655860 -0.172825 -0.576708 54.509441 88.609184
[L_front_hand02_01]
19 86.935165 -11.437475 24.513514 133.656082 -49.045864 -36.127136 91.046425
20 86.935165 -11.437475 24.513514 131.538483 -46.971073 -33.277344 91.046425
[L_front_hand03_01]
19 86.637497 -14.123976 -20.424902 -134.426071 47.338192 -38.454964 90.126129
20 86.637497 -14.123976 -20.424902 -132.400513 45.289532 -35.652481 90.126129
[L_front_hand01_02]
19 71.020905 -0.000179 0.000030 0.000253 -0.002334 -102.385681 71.020905
20 71.020905 -0.000179 0.000030 0.000177 -0.002341 -98.635559 71.020905
[L_front_hand02_02]
19 71.020927 -0.000119 0.000060 0.000253 -0.002334 -102.385681 71.020927
20 71.020927 -0.000119 0.000060 0.000177 -0.002341 -98.635559 71.020927
[L_front_hand03_02]
19 71.020905 -0.000060 0.000060 0.000253 -0.002334 -102.385681 71.020905
20 71.020905 -0.000060 0.000060 0.000177 -0.002341 -98.635559 71.020905
[R_forearm]
19 322.776428 -0.000060 0.000030 0.212616 0.019211 -95.953789 322.776428
20 322.776428 -0.000060 0.000030 0.212575 0.019661 -96.196335 322.776428
[R_front_hand]
19 238.847015 -0.006795 2.210259 -2.635298 -10.645461 -26.312506 238.857239
20 238.847015 -0.006795 2.210259 -2.635298 -10.645461 -26.312506 238.857239
[R_weapon_bone]
19 155.664093 0.002503 -0.000030 0.003487 0.001180 -90.988930 155.664078
20 155.664093 0.002503 -0.000030 0.003487 0.001180 -90.988930 155.664078
[R_front_hand01_01]
19 87.624611 14.231146 22.918642 -141.083969 -54.436916 45.672497 91.683487
20 87.624611 14.231146 22.918642 -143.936417 -55.959175 49.146500 91.683487
[R_front_hand02_01]
19 89.356956 14.367283 -19.491137 141.813004 52.852688 48.289940 92.579636
20 89.356956 14.367283 -19.491137 144.531738 54.354271 51.666687 92.579636
[R_front_hand03_01]
19 87.286232 -22.307278 -0.143439 0.082367 -0.444902 -65.508446 90.091743
20 87.286232 -22.307278 -0.143439 0.103016 -0.441569 -68.007950 90.091743
[R_front_hand01_02]
19 71.020905 0.000060 0.000119 0.002323 -0.000334 106.381714 71.020905
20 71.020905 0.000060 0.000119 0.002323 -0.000334 106.381714 71.020905
[R_front_hand02_02]
19 71.020844 -0.000030 -0.000119 0.002323 -0.000334 106.381714 71.020836
20 71.020844 -0.000030 -0.000119 0.002323 -0.000334 106.381714 71.020836
[R_front_hand03_02]
19 71.020905 0.000000 0.000030 0.002323 -0.000334 106.381714 71.020905
20 71.020905 0.000000 0.000030 0.002323 -0.000334 106.381714 71.020905
[null_rope01_connect]
19 328.732483 0.000000 -0.000238 -162.416412 -5.326323 -110.659782 328.732483
20 328.732483 0.000000 -0.000238 -162.578140 -4.952087 -111.197739 328.732483
[Rope1_Seg01]
19 0.000078 -0.000058 0.000074 14.157564 -69.998901 97.494492 0.000122
20 0.000083 -0.000059 0.000070 15.406857 -69.611496 96.138130 0.000123
[Rope1_Seg02]
19 139.999863 -0.000179 0.000000 0.535345 5.605209 0.483420 139.999863
20 139.999863 -0.000179 0.000000 0.499130 5.575348 0.555790 139.999863
[Rope1_Seg03]
19 139.999924 0.000060 -0.000060 0.313673 9.332841 0.721976 139.999924
20 139.999924 0.000060 -0.000060 0.264308 9.278334 0.851765 139.999924
[Rope1_Seg04]
19 139.999924 -0.000060 -0.000119 -2.348183 21.210802 -0.483345 139.999924
20 139.999924 -0.000060 -0.000119 -2.434349 21.217955 -0.378857 139.999924
[Rope1_Seg05]
19 139.999832 0.000119 -0.000060 -12.125356 32.101967 0.971651 139.999832
20 139.999832 0.000119 -0.000060 -11.400196 30.979382 2.015906 139.999832
[Rope1_Seg06]
19 139.999954 0.000119 -0.000060 -5.793249 -1.200084 20.072130 139.999954
20 139.999954 0.000119 -0.000060 -5.772802 -1.642337 21.842472 139.999954
[Rope1_Seg07]
19 139.999985 0.000060 0.000000 -2.638807 -7.356753 25.327515 139.999985
20 139.999985 0.000060 0.000000 -1.854493 -5.214387 24.786690 139.999985
[Rope1_Seg09]
19 121.602913 0.000119 -0.000089 -89.793175 -1.359789 0.847147 121.602913
20 121.602913 0.000119 -0.000089 -89.793175 -1.359789 0.847147 121.602913
[L_mid_hand01]
19 103.859421 1.038730 8.195221 110.329323 -44.475258 -15.081757 104.187431
20 103.859421 1.038730 8.195221 111.331635 -47.044144 -16.484426 104.187431
[L_mid_hand02]
19 105.572853 -4.139662 -10.864139 -148.937714 33.668667 -42.029247 106.211075
20 105.572853 -4.139662 -10.864139 -150.562561 35.052639 -44.910461 106.211075
[L_mid_hand03]
19 104.641464 17.579376 -3.913581 -13.360329 13.301841 47.989174 106.179977
20 104.641464 17.579376 -3.913581 -12.713109 13.922001 50.749584 106.179977
[null_rope02_connect]
19 328.732849 0.000179 -0.000119 -11.828452 21.255365 97.378807 328.732849
20 328.732849 0.000179 -0.000119 -12.232831 20.860546 96.415932 328.732849
[Rope2_Seg01]
19 0.000097 0.000134 -0.000078 95.874054 68.135063 35.162598 0.000183
20 0.000100 0.000135 -0.000083 91.360420 68.193130 30.134840 0.000188
[Rope2_Seg02]
19 139.999741 -0.000060 -0.000119 0.409002 22.076447 -18.661137 139.999756
20 139.999741 -0.000060 -0.000119 -0.258023 22.363022 -17.897322 139.999756
[Rope2_Seg03]
19 140.000107 0.000030 0.000000 7.638442 10.682407 -12.474656 140.000107
20 140.000107 0.000030 0.000000 8.272100 15.364850 -15.246808 140.000107
[Rope2_Seg04]
19 139.999802 0.000000 -0.000060 8.970178 7.829465 -8.641985 139.999802
20 139.999802 0.000000 -0.000060 13.569469 8.566781 -9.946520 139.999802
[Rope2_Seg05]
19 139.999985 -0.000060 0.000119 54.473923 14.420934 -15.841191 139.999985
20 139.999985 -0.000060 0.000119 60.743843 10.968682 -14.522063 139.999985
[Rope2_Seg06]
19 139.999893 -0.000030 -0.000119 75.500587 -4.502204 -20.237518 139.999893
20 139.999893 -0.000030 -0.000119 62.796841 -7.004251 -16.277397 139.999893
[Rope2_Seg07]
19 139.999893 0.000060 -0.000060 8.091532 -10.927938 -0.205808 139.999893
20 139.999893 0.000060 -0.000060 8.497087 -10.007583 -0.489762 139.999893
[Rope2_Seg09]
19 121.338966 0.000089 -0.000060 33.793236 -1.359788 -0.847141 121.338966
20 121.338966 0.000089 -0.000060 33.793236 -1.359788 -0.847141 121.338966
[R_mid_hand01]
19 104.680779 11.144459 -10.335981 -36.495327 32.739502 38.894321 105.778534
20 104.680779 11.144459 -10.335981 -37.023243 32.123154 37.917080 105.778534
[R_mid_hand02]
19 104.070427 2.443552 8.231699 69.926315 -43.736977 14.713633 104.424065
20 104.070427 2.443552 8.231699 70.253304 -42.771339 14.235763 104.424065
[R_mid_hand03]
19 106.028137 -11.221827 -5.996406 -170.196442 12.469418 -48.616356 106.788818
20 106.028137 -11.221827 -5.996406 -169.973053 12.289117 -47.575344 106.788818
[spine02]
19 129.756927 0.001550 0.000119 -0.866024 -3.969656 4.456994 129.756927
20 129.756927 0.001550 0.000119 -0.841535 -3.972739 4.107054 129.756927
[spine03]
19 78.614044 0.081316 -4.898992 1.144371 4.118039 5.662328 78.766579
20 78.614044 0.081290 -4.898991 1.158977 4.113147 5.865959 78.766579
[pelvis]
19 169.435242 0.051022 0.000000 0.009726 -0.191006 -7.798785 169.435257
20 169.435242 0.051022 0.000000 0.009016 -0.191040 -7.372518 169.435257
[null_rope03_connect]
19 -1.257226 -2.466202 137.391083 -172.638763 -20.609703 -95.645203 137.418976
20 -1.257226 -2.466202 137.391083 -172.632736 -20.132841 -95.878448 137.418976
[null_rope04_connect]
19 -1.259640 -2.480268 -137.844437 -172.638763 -20.609703 -95.645203 137.872513
20 -1.259640 -2.480268 -137.844437 -172.632736 -20.132841 -95.878448 137.872513
[Rope3_Seg01]
19 0.000000 0.000000 0.000000 19.205708 8.233209 -48.815659 0.000000
20 0.000000 0.000000 0.000000 20.964266 11.564613 -50.518871 0.000000
[Rope3_Seg02]
19 139.999924 -0.000119 0.000060 6.978165 18.333044 -31.191664 139.999924
20 139.999924 -0.000119 0.000060 6.316254 15.391128 -29.641109 139.999924
[Rope3_Seg03]
19 139.999924 -0.000119 0.000119 -8.596018 15.791476 -45.886532 139.999924
20 139.999924 -0.000119 0.000119 -8.288167 14.000728 -45.067505 139.999924
[Rope3_Seg04]
19 139.999924 0.000119 0.000000 -5.607073 6.036856 -13.752701 139.999924
20 139.999924 0.000119 0.000000 -6.549831 6.139240 -15.169661 139.999924
[Rope3_Seg05]
19 139.999924 -0.000238 0.000060 -5.895151 4.735010 -11.501630 139.999924
20 139.999924 -0.000238 0.000060 -7.115868 5.291863 -12.304208 139.999924
[Rope3_Seg06]
19 139.999893 -0.000119 -0.000060 -17.987711 10.268042 -22.207741 139.999893
20 139.999893 -0.000119 -0.000060 -20.349003 11.591125 -22.379963 139.999893
[Rope3_Seg07]
19 139.999771 0.000060 -0.000119 -22.494184 15.235569 -17.629511 139.999771
20 139.999771 0.000060 -0.000119 -20.952177 15.513153 -15.146560 139.999771
[Rope3_Seg08]
19 139.999985 -0.000060 0.000000 -9.205252 9.688833 -5.063412 139.999985
20 139.999985 -0.000060 0.000000 -8.171120 9.314345 -4.187679 139.999985
[Rope3_Seg09]
19 90.185997 -0.000179 -0.000060 89.793228 -1.359877 -0.847183 90.185997
20 90.185997 -0.000179 -0.000060 89.793228 -1.359877 -0.847183 90.185997
[R_rear_hand01]
19 103.366196 -6.073594 -10.757982 -174.305573 -18.804945 -50.958954 104.101845
20 103.366196 -6.073594 -10.757982 -174.125488 -18.894577 -50.600559 104.101845
[R_rear_hand02]
19 100.509819 12.039542 -7.992327 -30.611040 25.017698 38.577400 101.543350
20 100.509819 12.039542 -7.992327 -30.792652 24.782450 38.141541 101.543350
[R_rear_hand03]
19 101.539970 5.215704 5.435467 82.396400 -41.501785 8.918382 101.819031
20 101.539970 5.215704 5.435467 82.448357 -41.048256 8.840384 101.819031
[Rope4_Seg01]
19 0.000010 0.000019 -0.000074 -106.528488 -14.960534 -60.769047 0.000077
20 0.000010 0.000017 -0.000070 -108.543274 -16.793882 -59.196644 0.000073
[Rope4_Seg02]
19 139.999985 0.000060 0.000119 -13.554241 21.722818 -10.465240 139.999985
20 139.999985 0.000060 0.000119 -13.504923 23.033461 -9.457868 139.999985
[Rope4_Seg03]
19 139.999924 0.000000 -0.000238 -7.883922 39.638786 -11.068555 139.999924
20 139.999924 0.000000 -0.000238 -6.280675 40.115166 -7.989316 139.999924
[Rope4_Seg04]
19 139.999985 0.000000 0.000119 3.560529 22.750397 -3.992040 139.999985
20 139.999985 0.000000 0.000119 3.501039 21.708998 -2.163501 139.999985
[Rope4_Seg05]
19 139.999802 -0.000060 -0.000119 3.636399 9.721334 -2.276510 139.999802
20 139.999802 -0.000060 -0.000119 3.836950 10.209747 -2.050253 139.999802
[Rope4_Seg06]
19 139.999924 0.000000 0.000060 8.835417 14.958026 -4.426414 139.999924
20 139.999924 0.000000 0.000060 11.636780 17.592682 -5.555268 139.999924
[Rope4_Seg07]
19 139.999802 0.000000 0.000000 38.582794 30.601912 -16.309435 139.999802
20 139.999802 0.000000 0.000000 40.913567 29.031296 -18.366526 139.999802
[Rope4_Seg08]
19 139.999924 0.000000 0.000119 26.030052 7.628942 -20.033230 139.999924
20 139.999924 0.000000 0.000119 21.946091 4.870605 -18.457485 139.999924
[Rope4_Seg09]
19 90.185791 0.000060 0.000060 -135.617828 2.228885 0.850567 90.185791
20 90.185791 0.000060 0.000060 -135.617828 2.228885 0.850567 90.185791
[L_rear_hand01]
19 101.696655 -8.392275 -7.654577 -27.588615 -28.361088 134.712082 102.329041
20 101.696655 -8.392275 -7.654577 -26.201536 -29.631567 131.847122 102.329041
[L_rear_hand02]
19 102.726799 -1.568258 5.773216 81.431313 48.300438 169.720108 102.900848
20 102.726799 -1.568258 5.773216 80.925568 51.072418 169.054459 102.900848
[L_rear_hand03]
19 104.552910 9.721220 -10.420293 -167.421646 -21.393103 -132.057709 105.519653
20 104.552910 9.721220 -10.420293 -168.512375 -21.976343 -129.102875 105.519653
